<?xml version="1.0" encoding="UTF-8"?>
<svg width="278px" height="312px" viewBox="0 0 278 312" version="1.1" xmlns="http://www.w3.org/2000/svg" xmlns:xlink="http://www.w3.org/1999/xlink">
    <!-- Generator: Sketch 41.2 (35397) - http://www.bohemiancoding.com/sketch -->
    <title>Page 1</title>
    <desc>Created with Sketch.</desc>
    <defs></defs>
    <g id="Page-1" stroke="none" stroke-width="1" fill="none" fill-rule="evenodd">
        <g fill="#009FDA">
            <path d="M248.493,60.102 L240.611,60.102 C239.507,60.102 238.611,60.998 238.611,62.102 L238.611,283.389 C238.611,292.287 231.372,299.526 222.474,299.526 L54.7872,299.526 C45.8932,299.526 38.6582,292.287 38.6582,283.389 L38.6582,62.102 C38.6582,60.998 37.7622,60.102 36.6582,60.102 L28.7752,60.102 C27.6712,60.102 26.7752,60.998 26.7752,62.102 L26.7752,283.389 C26.7752,298.839 39.3412,311.408 54.7872,311.408 L222.474,311.408 C237.924,311.408 250.493,298.839 250.493,283.389 L250.493,62.102 C250.493,60.998 249.597,60.102 248.493,60.102" id="Fill-1"></path>
            <path d="M89.6187,263.5712 C90.7227,263.5712 91.6187,262.6752 91.6187,261.5712 L91.6187,94.569 C91.6187,93.465 90.7227,92.569 89.6187,92.569 L81.7367,92.569 C80.6317,92.569 79.7367,93.465 79.7367,94.569 L79.7367,261.5712 C79.7367,262.6752 80.6317,263.5712 81.7367,263.5712 L89.6187,263.5712 Z" id="Fill-2"></path>
            <path d="M142.571,263.5712 C143.675,263.5712 144.571,262.6752 144.571,261.5712 L144.571,94.569 C144.571,93.465 143.675,92.569 142.571,92.569 L134.689,92.569 C133.585,92.569 132.689,93.465 132.689,94.569 L132.689,261.5712 C132.689,262.6752 133.585,263.5712 134.689,263.5712 L142.571,263.5712 Z" id="Fill-3"></path>
            <path d="M195.532,263.5712 C196.636,263.5712 197.532,262.6752 197.532,261.5712 L197.532,94.569 C197.532,93.465 196.636,92.569 195.532,92.569 L187.65,92.569 C186.546,92.569 185.65,93.465 185.65,94.569 L185.65,261.5712 C185.65,262.6752 186.546,263.5712 187.65,263.5712 L195.532,263.5712 Z" id="Fill-4"></path>
            <path d="M167.75,17.938 L167.75,29.228 L109.511,29.228 L109.511,17.938 C109.511,14.599 112.231,11.882 115.575,11.882 L161.687,11.882 C165.03,11.882 167.75,14.599 167.75,17.938 M259.316,29.228 L179.632,29.228 L179.632,17.938 C179.632,8.047 171.582,0 161.687,0 L115.575,0 C105.679,0 97.629,8.047 97.629,17.938 L97.629,29.228 L17.945,29.228 C8.05,29.228 0,37.278 0,47.173 L0,73.744 C0,74.849 0.895,75.744 2,75.744 L9.882,75.744 C10.986,75.744 11.882,74.849 11.882,73.744 L11.882,47.173 C11.882,43.83 14.602,41.11 17.945,41.11 L259.316,41.11 C262.655,41.11 265.372,43.83 265.372,47.173 L265.372,73.744 C265.372,74.849 266.268,75.744 267.372,75.744 L275.254,75.744 C276.358,75.744 277.254,74.849 277.254,73.744 L277.254,47.173 C277.254,37.278 269.207,29.228 259.316,29.228" id="Fill-5"></path>
        </g>
    </g>
</svg>