<?xml version="1.0" encoding="UTF-8"?>
<svg width="313px" height="313px" viewBox="0 0 313 313" version="1.1" xmlns="http://www.w3.org/2000/svg" xmlns:xlink="http://www.w3.org/1999/xlink">
    <!-- Generator: Sketch 41.2 (35397) - http://www.bohemiancoding.com/sketch -->
    <title>Mas</title>
    <desc>Created with Sketch.</desc>
    <defs></defs>
    <g id="Page-1" stroke="none" stroke-width="1" fill="none" fill-rule="evenodd">
        <g id="Mas" fill="#009FDA">
            <path d="M156.178,12.087 C76.726,12.087 12.087,76.726 12.087,156.178 C12.087,235.63 76.726,300.269 156.178,300.269 C235.629,300.269 300.268,235.63 300.268,156.178 C300.268,76.726 235.629,12.087 156.178,12.087 M156.178,312.357 C70.061,312.357 0,242.295 0,156.178 C0,70.061 70.061,0 156.178,0 C242.295,0 312.356,70.061 312.356,156.178 C312.356,242.295 242.295,312.357 156.178,312.357" id="Fill-1"></path>
            <path d="M257.714,160.134 L55.4631,160.134 C52.1501,160.134 49.4631,157.447 49.4631,154.134 C49.4631,150.82 52.1501,148.134 55.4631,148.134 L257.714,148.134 C261.027,148.134 263.714,150.82 263.714,154.134 C263.714,157.447 261.027,160.134 257.714,160.134" id="Fill-2"></path>
            <path d="M156.589,261.2579 C153.276,261.2579 150.589,258.5709 150.589,255.2579 L150.589,53.009 C150.589,49.695 153.276,47.009 156.589,47.009 C159.903,47.009 162.589,49.695 162.589,53.009 L162.589,255.2579 C162.589,258.5709 159.903,261.2579 156.589,261.2579" id="Fill-3"></path>
        </g>
    </g>
</svg>