<?xml version="1.0" encoding="UTF-8"?>
<svg width="312px" height="312px" viewBox="0 0 312 312" version="1.1" xmlns="http://www.w3.org/2000/svg" xmlns:xlink="http://www.w3.org/1999/xlink">
    <!-- Generator: Sketch 40.3 (33839) - http://www.bohemiancoding.com/sketch -->
    <title>Page 1</title>
    <desc>Created with Sketch.</desc>
    <defs></defs>
    <g id="Page-1" stroke="none" stroke-width="1" fill="none" fill-rule="evenodd">
        <g fill="#009FDA">
            <path d="M162.971,214.065 C161.495,214.065 159.985,214.738 158.829,215.911 C157.672,217.083 157.021,218.604 157.041,220.082 L157.042,265.358 L156.101,265.571 L11.859,298.376 L11.859,13.289 L157.042,46.306 L157.042,91.566 C157.021,93.06 157.672,94.581 158.83,95.755 C159.986,96.927 161.495,97.599 162.971,97.599 C164.447,97.599 165.956,96.927 167.112,95.755 C168.269,94.581 168.92,93.06 168.9,91.583 L168.9,41.581 C168.891,38.975 166.897,36.451 164.36,35.839 L7.334,0.139 C6.946,0.045 6.557,0 6.164,0 C2.996,0 0,2.856 0,5.878 L0,305.787 C0.011,308.807 3.006,311.665 6.165,311.665 C6.558,311.665 6.946,311.62 7.319,311.529 L164.323,275.834 C166.34,275.174 168.75,273.632 168.901,270.033 L168.9,220.099 C168.921,218.604 168.27,217.084 167.113,215.911 C165.957,214.738 164.447,214.065 162.971,214.065" id="Fill-1"></path>
            <path d="M310.278,151.789 L253.139,91.078 C252.035,89.902 250.448,89.228 248.783,89.228 C247.251,89.228 245.826,89.798 244.772,90.834 C242.551,93.018 242.433,97.023 244.525,99.234 L292.288,149.904 L56.1608,149.904 C52.8908,149.904 50.2308,152.564 50.2308,155.834 C50.2308,159.103 52.8908,161.763 56.1608,161.763 L292.288,161.763 L244.526,212.4318 C243.484,213.5338 242.926,215.1308 242.993,216.8148 C243.057,218.4078 243.691,219.8598 244.734,220.7988 C245.925,221.8698 247.348,222.4368 248.847,222.4368 C250.463,222.4368 251.991,221.7768 253.151,220.5778 L310.244,159.913 C311.043,159.075 311.928,157.197 311.928,155.833 C311.902,154.318 311.617,153.102 310.278,151.789" id="Fill-2"></path>
        </g>
    </g>
</svg>