<?xml version="1.0" encoding="UTF-8"?>
<svg width="296px" height="313px" viewBox="0 0 296 313" version="1.1" xmlns="http://www.w3.org/2000/svg" xmlns:xlink="http://www.w3.org/1999/xlink">
    <!-- Generator: Sketch 40.3 (33839) - http://www.bohemiancoding.com/sketch -->
    <title>Page 1</title>
    <desc>Created with Sketch.</desc>
    <defs></defs>
    <g id="Page-1" stroke="none" stroke-width="1" fill="none" fill-rule="evenodd">
        <g fill="#f00">
            <path d="M294.283,152.543 C291.27,116.844 276.887,85.75 251.533,60.108 L251.444,60.017 C250.124,58.653 248.08,58.082 246.239,58.581 L245.971,58.649 C243.986,59.134 242.403,60.655 241.837,62.617 C241.212,64.759 240.768,66.276 244.577,70.27 C274.266,101.423 286.787,138.731 281.794,181.163 C277.302,218.602 257.152,252.634 226.51,274.56 C203.26,291.184 175.869,299.97 147.291,299.97 C137.793,299.97 128.262,298.967 118.965,296.991 C48.7323,282.007 2.4733,214.731 13.6453,143.827 C18.1043,115.518 30.8353,90.285 51.4833,68.831 L51.6193,68.692 C52.7723,67.533 53.4323,65.941 53.4383,64.309 C53.3603,62.748 52.6603,61.253 51.5063,60.195 L51.2993,59.999 C50.2833,59.021 48.9523,58.468 47.5443,58.438 C45.7583,58.483 44.0463,59.259 42.8373,60.577 L42.6963,60.728 C7.2973,97.983 -6.1907,142.01 2.6083,191.584 C9.4513,230.134 31.1343,263.701 63.6643,286.1 C88.4583,303.175 117.21,312.201 146.812,312.202 L146.817,312.202 C156.033,312.202 165.345,311.317 174.497,309.571 C244.767,296.122 294.311,236.804 295.096,165.243 L294.88,161.525 C294.68,158.003 294.52,155.307 294.283,152.543" id="Fill-1"></path>
            <path d="M141.565,64.735 L141.826,64.735 L141.826,88.572 C141.826,92.847 141.792,97.124 141.758,101.402 C141.727,105.377 141.695,109.352 141.692,113.327 C141.692,119.714 141.679,126.191 141.667,132.706 C141.642,145.672 141.616,159.078 141.692,172.128 C141.708,174.823 144.526,177.376 147.491,177.376 C150.823,177.376 153.417,174.617 153.424,172.244 C153.568,121.123 153.518,69.078 153.47,18.746 L153.467,5.019 C153.467,4.473 153.467,3.557 151.858,1.85 C150.238,0.128 147.624,-0.47 145.418,0.389 L145.245,0.455 C143.047,1.27 141.582,3.393 141.6,5.737 L141.601,5.867 C141.536,25.728 141.551,46.45 141.565,64.735" id="Fill-2"></path>
        </g>
    </g>
</svg>