<?xml version="1.0" encoding="UTF-8"?>
<svg width="270px" height="311px" viewBox="0 0 270 311" version="1.1" xmlns="http://www.w3.org/2000/svg" xmlns:xlink="http://www.w3.org/1999/xlink">
    <!-- Generator: Sketch 40.3 (33839) - http://www.bohemiancoding.com/sketch -->
    <title>Page 1</title>
    <desc>Created with Sketch.</desc>
    <defs></defs>
    <g id="Page-1" stroke="none" stroke-width="1" fill="none" fill-rule="evenodd">
        <g fill="#009FDA">
            <path d="M47.8711,19.345 L263.871,19.345 C267.101,19.345 269.721,16.726 269.721,13.495 C269.721,10.264 267.101,7.645 263.871,7.645 L47.8711,7.645 C44.6401,7.645 42.0211,10.264 42.0211,13.495 C42.0211,16.726 44.6401,19.345 47.8711,19.345" id="Fill-1"></path>
            <path d="M13.495,0 C6.042,0 0,6.042 0,13.495 C0,20.948 6.042,26.99 13.495,26.99 C20.948,26.99 26.99,20.948 26.99,13.495 C26.99,6.042 20.948,0 13.495,0" id="Fill-2"></path>
            <path d="M263.871,78.645 L47.8712,78.645 C44.6402,78.645 42.0212,81.264 42.0212,84.495 C42.0212,87.726 44.6402,90.345 47.8712,90.345 L263.871,90.345 C267.101,90.345 269.721,87.726 269.721,84.495 C269.721,81.264 267.101,78.645 263.871,78.645" id="Fill-3"></path>
            <path d="M13.495,71 C6.042,71 0,77.042 0,84.495 C0,91.948 6.042,97.99 13.495,97.99 C20.948,97.99 26.99,91.948 26.99,84.495 C26.99,77.042 20.948,71 13.495,71" id="Fill-4"></path>
            <path d="M263.871,149.645 L47.8712,149.645 C44.6402,149.645 42.0212,152.264 42.0212,155.495 C42.0212,158.726 44.6402,161.345 47.8712,161.345 L263.871,161.345 C267.101,161.345 269.721,158.726 269.721,155.495 C269.721,152.264 267.101,149.645 263.871,149.645" id="Fill-5"></path>
            <path d="M13.495,142 C6.042,142 0,148.042 0,155.495 C0,162.948 6.042,168.99 13.495,168.99 C20.948,168.99 26.99,162.948 26.99,155.495 C26.99,148.042 20.948,142 13.495,142" id="Fill-6"></path>
            <path d="M263.871,220.6456 L47.8712,220.6456 C44.6402,220.6456 42.0212,223.2646 42.0212,226.4956 C42.0212,229.7256 44.6402,232.3446 47.8712,232.3446 L263.871,232.3446 C267.101,232.3446 269.721,229.7256 269.721,226.4956 C269.721,223.2646 267.101,220.6456 263.871,220.6456" id="Fill-7"></path>
            <path d="M13.495,213 C6.042,213 0,219.042 0,226.495 C0,233.948 6.042,239.99 13.495,239.99 C20.948,239.99 26.99,233.948 26.99,226.495 C26.99,219.042 20.948,213 13.495,213" id="Fill-8"></path>
            <path d="M263.871,291.6456 L47.8712,291.6456 C44.6402,291.6456 42.0212,294.2646 42.0212,297.4956 C42.0212,300.7256 44.6402,303.3446 47.8712,303.3446 L263.871,303.3446 C267.101,303.3446 269.721,300.7256 269.721,297.4956 C269.721,294.2646 267.101,291.6456 263.871,291.6456" id="Fill-9"></path>
            <path d="M13.495,284 C6.042,284 0,290.042 0,297.495 C0,304.948 6.042,310.99 13.495,310.99 C20.948,310.99 26.99,304.948 26.99,297.495 C26.99,290.042 20.948,284 13.495,284" id="Fill-10"></path>
        </g>
    </g>
</svg>