<?xml version="1.0" encoding="UTF-8"?>
<svg width="311px" height="312px" viewBox="0 0 311 312" version="1.1" xmlns="http://www.w3.org/2000/svg" xmlns:xlink="http://www.w3.org/1999/xlink">
    <!-- Generator: Sketch 40.3 (33839) - http://www.bohemiancoding.com/sketch -->
    <title>Page 1</title>
    <desc>Created with Sketch.</desc>
    <defs></defs>
    <g id="Page-1" stroke="none" stroke-width="1" fill="none" fill-rule="evenodd">
        <path d="M98.883,205.288 L94.87,202.945 C94.454,202.701 93.943,202.681 93.508,202.892 L80.873,208.993 L68.389,202.968 C68.19,202.871 67.974,202.823 67.758,202.823 C67.534,202.823 67.31,202.875 67.105,202.979 L61.158,205.982 L61.158,161.55 L98.883,161.55 L98.883,205.288 Z M50.132,223.898 C50.561,224.162 51.096,224.185 51.545,223.957 L67.861,215.721 L80.246,221.7 C80.645,221.893 81.109,221.893 81.508,221.7 L93.685,215.817 L108.422,224.433 C108.87,224.694 109.425,224.696 109.875,224.438 C110.326,224.18 110.604,223.7 110.604,223.181 L110.604,161.55 L149.102,161.55 L149.102,299.635 L11.725,299.635 L11.725,161.55 L49.442,161.55 L49.442,222.663 C49.442,223.167 49.703,223.634 50.132,223.898 L50.132,223.898 Z M173.438,55.456 L169.425,53.115 C169.007,52.872 168.498,52.852 168.064,53.062 L155.428,59.161 L142.944,53.138 C142.744,53.042 142.529,52.994 142.314,52.994 C142.09,52.994 141.866,53.046 141.66,53.149 L135.713,56.15 L135.713,11.717 L173.438,11.717 L173.438,55.456 Z M124.687,74.065 C125.116,74.33 125.652,74.352 126.1,74.124 L142.416,65.891 L154.802,71.867 C155.2,72.059 155.664,72.059 156.062,71.867 L168.24,65.988 L182.977,74.6 C183.425,74.861 183.979,74.863 184.43,74.605 C184.881,74.347 185.159,73.867 185.159,73.348 L185.159,11.717 L224.584,11.717 L224.584,149.801 L86.272,149.801 L86.272,11.717 L123.997,11.717 L123.997,72.83 C123.997,73.333 124.258,73.801 124.687,74.065 L124.687,74.065 Z M161.753,161.55 L198.544,161.55 L198.544,222.663 C198.544,223.167 198.805,223.634 199.234,223.897 C199.664,224.163 200.199,224.183 200.647,223.958 L216.967,215.721 L229.352,221.7 C229.751,221.893 230.216,221.893 230.614,221.7 L242.792,215.817 L257.528,224.433 C257.975,224.694 258.53,224.696 258.981,224.438 C259.431,224.18 259.71,223.7 259.71,223.181 L259.71,161.55 L299.134,161.55 L299.134,299.635 L161.753,299.635 L161.753,161.55 Z M247.985,205.286 L243.981,202.945 C243.567,202.701 243.054,202.681 242.619,202.892 L229.983,208.993 L217.499,202.968 C217.3,202.871 217.085,202.823 216.869,202.823 C216.645,202.823 216.421,202.875 216.216,202.979 L210.268,205.982 L210.268,161.55 L247.985,161.55 L247.985,205.286 Z M309.397,149.829 L236.304,149.829 L236.304,1.45 C236.304,0.649 235.655,0 234.854,0 L76.006,0 C75.205,0 74.555,0.649 74.555,1.45 L74.555,149.829 L1.45,149.829 C0.649,149.829 0,150.478 0,151.279 L0,309.9 C0,310.701 0.649,311.35 1.45,311.35 L309.397,311.35 C310.198,311.35 310.847,310.701 310.847,309.9 L310.847,151.279 C310.847,150.478 310.198,149.829 309.397,149.829 L309.397,149.829 Z" fill="#009FDA"></path>
    </g>
</svg>