<?xml version="1.0" encoding="UTF-8"?>
<svg xmlns="http://www.w3.org/2000/svg" width="5647" height="5082">
	<g fill="#009EDA">
		<path d="M2823.82 3952.37c0-34.53 19-67.75 52.03-84.3l752.8-376.4c46.5-23.26 102.95-4.34 126.28 42.14 23.15 46.5 4.33 103-42.15 126.3l-752.8 376.4c-46.5 23.3-102.95 4.4-126.28-42.1-6.68-13.4-9.88-27.8-9.88-41.9"/>
		<path d="M2501.36 3669.98c-292.93 248.04-628.68 637.33-699.54 1156L4036.7 3670H2501.36zm-900.82 1317.4v-2.26c16.85-688.06 448-1185.57 806.72-1481.8 16.85-13.92 38.02-21.54 59.94-21.54h1956.34c43.38 0 81.12 29.64 91.37 71.9 10.7 42.43-9.5 85.9-48.1 105.85l-2728.9 1411.5c-29.5 15.24-64.9 13.74-93.1-3.86-27.5-17.22-44.13-47.42-44.13-79.8zm2256.64-4740.1l-2328.6 1164.3h1201.84l95.9-398.42c6.67-27.86 25.77-51.2 51.84-63.24 25.97-12.14 56.08-11.76 81.77 1.13l333.3 166.65c341.02-186.4 543.34-499.3 563.94-870.42m-2821.3 1258.4c0-35 19.57-68.04 51.94-84.13l2823-1411.5c29.2-14.68 63.8-13.08 91.6 4.05 27.8 17.12 44.7 47.33 44.7 79.98l.1 88.83v1.2c0 487.7-258.9 897.2-710.7 1123.6-26.5 13.2-57.7 13.2-84.3 0l-270.5-135.3-85.43 355.4c-10.16 42.38-48.1 72.1-91.56 72.1H1130c-43.67 0-81.6-30-91.67-72.44-1.68-7.25-2.43-14.5-2.43-21.64m282.32 1035.1c0-207.6-168.82-376.4-376.4-376.4-207.6 0-376.4 168.8-376.4 376.4 0 207.57 168.8 376.4 376.4 376.4 207.58 0 376.4-168.83 376.4-376.4m-941 0c0-311.4 253.22-564.6 564.6-564.6 311.37 0 564.6 253.2 564.6 564.6 0 311.36-253.23 564.6-564.6 564.6-311.38 0-564.6-253.24-564.6-564.6m4705 0c0-207.6-168.82-376.4-376.4-376.4-207.6 0-376.4 168.8-376.4 376.4 0 207.57 168.8 376.4 376.4 376.4 207.58 0 376.4-168.83 376.4-376.4m-941 0c0-311.4 253.22-564.6 564.6-564.6 311.37 0 564.6 253.2 564.6 564.6 0 311.36-253.23 564.6-564.6 564.6-311.38 0-564.6-253.24-564.6-564.6"/>
		<path d="M5458.6 2540.78c0-518.87-422.12-941-941-941H1130c-518.85 0-940.98 422.13-940.98 941 0 518.86 422.13 941 941 941h3387.6c518.86 0 941-422.14 941-941m-5457.8 0c0-622.66 506.54-1129.2 1129.2-1129.2h3387.6c622.66 0 1129.2 506.54 1129.2 1129.2 0 622.66-506.54 1129.2-1129.2 1129.2h-3387.6C507.36 3669.98.82 3163.44.82 2540.78"/>
		<path d="M2259.22 2352.58v376.4h282.3c52.03 0 94.1 42.06 94.1 94.1v282.3H3012v-282.3c0-52.04 42.06-94.1 94.1-94.1h282.3v-376.4h-282.3c-52.04 0-94.1-42.07-94.1-94.1v-282.3h-376.4v282.3c0 52.03-42.07 94.1-94.1 94.1h-282.3zm-188.2 470.5v-564.6c0-52.04 42.06-94.1 94.1-94.1h282.3v-282.3c0-52.04 42.06-94.1 94.1-94.1h564.6c52.03 0 94.1 42.06 94.1 94.1v282.3h282.3c52.03 0 94.1 42.06 94.1 94.1v564.6c0 52.03-42.07 94.1-94.1 94.1h-282.3v282.3c0 52.03-42.07 94.1-94.1 94.1h-564.6c-52.04 0-94.1-42.07-94.1-94.1v-282.3h-282.3c-52.04 0-94.1-42.07-94.1-94.1z"/>
	</g>
</svg>