<?xml version="1.0" encoding="UTF-8"?>
<svg width="312px" height="312px" viewBox="0 0 312 312" version="1.1" xmlns="http://www.w3.org/2000/svg" xmlns:xlink="http://www.w3.org/1999/xlink">
    <!-- Generator: Sketch 40.3 (33839) - http://www.bohemiancoding.com/sketch -->
    <title>Page 1</title>
    <desc>Created with Sketch.</desc>
    <defs></defs>
    <g id="Page-1" stroke="none" stroke-width="1" fill="none" fill-rule="evenodd">
        <g fill="#009FDA">
            <path d="M293.054,47.239 L284.64,55.653 L255.136,26.15 L263.551,17.735 C267.323,13.963 272.699,11.8 278.302,11.8 C283.906,11.8 289.282,13.963 293.054,17.735 C296.996,21.676 299.167,26.915 299.167,32.487 C299.167,38.059 296.996,43.298 293.054,47.239 L293.054,47.239 Z M174.166,166.143 L134.828,175.977 L144.663,136.64 L145.243,136.059 L246.666,34.636 L276.17,64.14 L174.166,166.143 Z M301.527,9.285 C295.633,3.383 287.172,0 278.308,0 C269.445,0 260.979,3.383 255.081,9.282 L135.008,129.355 C134.236,130.127 133.692,131.084 133.435,132.124 L120.792,182.745 C120.289,184.771 120.895,186.957 122.375,188.447 C123.834,189.907 126.09,190.51 128.03,190.018 L178.675,177.356 C179.72,177.1 180.677,176.557 181.452,175.781 L301.524,55.708 C307.73,49.503 311.146,41.256 311.146,32.487 C311.146,23.713 307.73,15.473 301.527,9.285 L301.527,9.285 Z" id="Fill-1"></path>
            <path d="M292.388,141.334 C289.152,141.334 286.523,143.906 286.416,147.116 L286.39,147.116 L286.39,268.702 C286.401,268.806 286.407,268.912 286.407,269.019 C286.407,285.705 273.036,299.28 256.601,299.28 L41.787,299.28 C25.352,299.28 11.981,285.705 11.981,269.019 L11.981,54.205 C11.981,38.011 25.352,24.836 41.787,24.836 L164.126,24.836 L164.126,24.835 C167.423,24.828 170.094,22.153 170.094,18.854 C170.094,15.555 167.423,12.88 164.126,12.873 L41.787,12.873 C18.746,12.873 0,31.422 0,54.222 L0,269.019 C0,292.302 18.746,311.242 41.787,311.242 L256.584,311.242 C279.625,311.242 298.37,292.302 298.37,269.019 L298.37,147.116 L298.36,147.116 C298.253,143.906 295.624,141.334 292.388,141.334" id="Fill-2"></path>
        </g>
    </g>
</svg>