<?xml version="1.0" encoding="UTF-8"?>
<svg width="313px" height="312px" viewBox="0 0 313 312" version="1.1" xmlns="http://www.w3.org/2000/svg" xmlns:xlink="http://www.w3.org/1999/xlink">
    <!-- Generator: Sketch 40.3 (33839) - http://www.bohemiancoding.com/sketch -->
    <title>Page 1</title>
    <desc>Created with Sketch.</desc>
    <defs></defs>
    <g id="Page-1" stroke="none" stroke-width="1" fill="none" fill-rule="evenodd">
        <g fill="#009FDA">
            <path d="M300.236,210.638 L130.966,295.626 L130.966,186.891 C130.966,147.842 102.449,106.288 67.397,94.26 C66.842,94.126 66.229,93.908 65.58,93.676 C64.765,93.386 63.923,93.086 62.996,92.901 L59.862,92.273 L214.408,14.644 C222.946,10.729 233.371,10.609 244.599,14.23 C275.287,24.812 300.236,61.498 300.236,96.016 L300.236,210.638 Z M119.185,296.781 L11.781,260.027 L11.781,145.997 C11.781,132.699 15.383,121.687 22.201,114.152 C28.643,106.755 37.59,102.837 48.063,102.837 C53.012,102.837 58.224,103.718 63.552,105.455 C94.238,116.159 119.185,152.688 119.185,186.891 L119.185,296.781 Z M248.448,3.386 C234.925,-1.348 221.454,-1.109 210.114,4.046 L209.897,4.144 L209.766,4.144 C209.757,4.153 209.748,4.162 209.739,4.172 L209.613,4.297 L209.454,4.377 L28.403,95.252 C22.853,97.865 18.074,101.451 13.337,106.551 C4.621,116.662 0,130.434 0,146.347 L0,264.484 C0,267.137 1.396,269.182 3.83,270.094 L122.707,311.001 L122.772,311.034 C123.22,311.258 123.695,311.268 124.726,311.268 C125.576,311.268 126.486,310.971 127.449,310.65 L308.429,219.811 C310.45,218.943 311.668,216.919 311.668,214.502 L312.017,96.013 C312.017,56.968 283.5,15.413 248.448,3.386 L248.448,3.386 Z" id="Fill-1"></path>
            <path d="M87.6187,189.66 L40.1397,173.603 C39.4877,173.345 38.8517,173.223 38.1927,173.223 C35.7417,173.223 33.4767,174.842 32.8077,177.071 C32.2307,178.525 32.3107,180.121 32.9967,181.542 C33.6827,182.966 34.8747,184.022 36.2647,184.439 L83.6257,200.937 C84.0737,201.161 84.5487,201.171 85.5807,201.171 C87.6797,201.171 90.2237,199.889 91.1777,197.029 C92.3167,194.176 90.7097,190.896 87.6187,189.66" id="Fill-2"></path>
            <path d="M87.6187,214.1263 L40.1397,198.068 C39.4877,197.81 38.8517,197.689 38.1937,197.689 C35.7417,197.689 33.4767,199.307 32.8077,201.537 C32.2307,202.991 32.3107,204.587 32.9967,206.007 C33.6827,207.432 34.8747,208.488 36.2647,208.905 L83.6257,225.4023 C84.0737,225.6263 84.5487,225.6363 85.5807,225.6363 C87.6797,225.6363 90.2237,224.3553 91.1777,221.4943 C91.7447,220.0703 91.6657,218.5593 90.9747,217.1793 C90.2957,215.8193 89.0717,214.7073 87.6187,214.1263" id="Fill-3"></path>
            <path d="M184.894,82.016 L161.724,93.602 L161.724,75.413 L184.894,63.828 L184.894,82.016 Z M194.019,49.048 C193.112,48.442 192.118,48.135 191.065,48.135 C190.188,48.135 189.319,48.348 188.481,48.766 L154.702,65.626 C152.23,66.245 150.292,68.693 150.292,71.2 L150.292,194.93 C150.292,198.178 152.935,200.821 156.183,200.821 C159.431,200.821 162.074,198.178 162.074,194.93 L162.074,106.873 L193.785,90.84 C195.808,89.97 197.026,87.947 197.026,85.531 L197.026,54.154 C196.678,51.835 195.695,50.164 194.019,49.048 L194.019,49.048 Z" id="Fill-4"></path>
        </g>
    </g>
</svg>